<?xml version="1.0" encoding="UTF-8"?> <svg xmlns="http://www.w3.org/2000/svg" width="455.399" height="348.6" viewBox="0 0 455.399 348.6"><g id="Hello_Yes_logo_inverted" data-name="Hello Yes logo_inverted" transform="translate(-69.9 -37.4)"><g id="Group_9690" data-name="Group 9690"><g id="Group_9688" data-name="Group 9688"><path id="Path_18346" data-name="Path 18346" d="M280.2,184.5h51.3v-8.8H280.2a10.67,10.67,0,0,1-10.6-10.6V91a10.67,10.67,0,0,1,10.6-10.6H389.6A10.67,10.67,0,0,1,400.2,91v74.1a10.67,10.67,0,0,1-10.6,10.6h-9.8v8.8h9.8A19.418,19.418,0,0,0,409,165.1V91a19.418,19.418,0,0,0-19.4-19.4H280.2A19.418,19.418,0,0,0,260.8,91v74.1A19.418,19.418,0,0,0,280.2,184.5Z" fill="#60c6c3"></path><path id="Path_18347" data-name="Path 18347" d="M388.4,226.9V180.1l-8.8-4.3v34.1l-48.7-34.3-3,8.7Z" fill="#60c6c3"></path></g><path id="Path_18348" data-name="Path 18348" d="M311.8,37.4H202.4A19.418,19.418,0,0,0,183,56.8V131a19.418,19.418,0,0,0,19.4,19.4h1.2v42.3l60.2-42.3h48.1A19.418,19.418,0,0,0,331.3,131V56.9A19.59,19.59,0,0,0,311.8,37.4Z" fill="#fff"></path><g id="Group_9689" data-name="Group 9689"><path id="Path_18349" data-name="Path 18349" d="M288.9,93.8,291.3,80h-8l3.4-19.6H270.9l-12.1,66.4h16.3l1.9-10.9h7.6l2.4-13.8h-7.6l1.5-8.3Z" fill="#60c6c3"></path><path id="Path_18350" data-name="Path 18350" d="M230.6,102.1H225l-2.5,13.7,5.6.1Z" fill="#60c6c3"></path><path id="Path_18351" data-name="Path 18351" d="M260.7,102.1H249.4l1.5-8.3h11.3L264.7,80H253.3l3.4-19.6H239.8L236.4,80h-7.2l-2.4,13.8h5.3v-.1l2.6.1-5.9,33h16.3l1.9-10.9h11.2Z" fill="#60c6c3"></path></g></g><path id="Path_18352" data-name="Path 18352" d="M69.9,261.8H93v26h21.6v-26h23.1v74.8H114.6V306.9H93v29.7H69.9Z" fill="#fff"></path><path id="Path_18353" data-name="Path 18353" d="M166.7,314.1c.5,6.2,4.1,10.6,10.6,10.6,3.4,0,7-1.2,8.7-3.9h19.4c-4.2,11.7-15.6,17.2-28,17.2-17.4,0-30.5-10.3-30.5-28.4,0-15.8,11.5-28.7,28.7-28.7,21.6,0,30.9,12,30.9,33.2H166.7Zm19.9-10.8a8.945,8.945,0,0,0-9.1-9.1c-6.2,0-9.7,3.3-10.7,9.1Z" fill="#fff"></path><path id="Path_18354" data-name="Path 18354" d="M215.6,261.8h20.8v74.8H215.6Z" fill="#fff"></path><path id="Path_18355" data-name="Path 18355" d="M248.6,261.8h20.8v74.8H248.6V261.8Z" fill="#fff"></path><path id="Path_18356" data-name="Path 18356" d="M308.6,338c-20.4,0-29.7-13.5-29.7-28.6s9.2-28.5,29.7-28.5c20.4,0,29.7,13.4,29.7,28.5C338.2,324.4,329,338,308.6,338Zm0-42.1c-7.9,0-8.9,7.6-8.9,13.4s1,13.5,8.9,13.5,8.9-7.8,8.9-13.5S316.4,295.9,308.6,295.9Z" fill="#fff"></path><path id="Path_18357" data-name="Path 18357" d="M364.8,309l-26.3-47.3H364l12.5,27.6,13-27.6h25.3l-27,47.3v27.6h-23Z" fill="#60c6c3"></path><path id="Path_18358" data-name="Path 18358" d="M425,314.1c.5,6.2,4.1,10.6,10.6,10.6,3.4,0,7-1.2,8.7-3.9h19.4c-4.2,11.7-15.6,17.2-28,17.2-17.4,0-30.5-10.3-30.5-28.4,0-15.8,11.5-28.7,28.7-28.7,21.6,0,30.9,12,30.9,33.2H425Zm19.9-10.8a8.945,8.945,0,0,0-9.1-9.1c-6.2,0-9.7,3.3-10.7,9.1Z" fill="#60c6c3"></path><path id="Path_18359" data-name="Path 18359" d="M505,298a5.216,5.216,0,0,0-2.4-4.1,7.55,7.55,0,0,0-4.6-1.6c-2.9,0-6.3.6-6.3,4.2,0,1.6,1.3,2.3,2.4,2.8,3.5,1.5,11.3,1.9,18.2,4.2,6.9,2.2,13,6.3,13,15.2,0,15.1-14.5,19.2-27.7,19.2-12.8,0-26.8-5.1-27.1-19.2h19.8a6.372,6.372,0,0,0,2.5,4.8,8.569,8.569,0,0,0,5.5,1.6c2.7,0,7-1,7-4.2,0-3.1-1.8-4.1-11.4-5.8-15.8-2.7-22.2-7.8-22.2-17.1,0-13.7,14.8-17.3,25.7-17.3,11.7,0,25.9,3.2,26.4,17.2H505Z" fill="#60c6c3"></path><g id="Group_9691" data-name="Group 9691"><path id="Path_18360" data-name="Path 18360" d="M189.6,358h5l8.6,23,8.6-23h5v27.3h-3.4V362.6h-.1l-8.5,22.7h-3.1l-8.5-22.7h-.1v22.7h-3.4V358Z" fill="#fff"></path><path id="Path_18361" data-name="Path 18361" d="M229.9,358h4l10.7,27.3h-4l-3-8.2H226l-3.1,8.2h-3.8Zm-2.7,16h9.3l-4.6-12.7h-.1Z" fill="#fff"></path><path id="Path_18362" data-name="Path 18362" d="M246.9,358h12.9c5.1,0,8.3,2.8,8.3,7.2,0,3.3-1.5,6-4.7,6.9v.1c3.2.6,3.8,2.9,4.1,5.6.2,2.7.1,5.7,1.6,7.5H265c-1-1.1-.5-4.1-1-6.7-.4-2.7-1-4.9-4.6-4.9h-8.9v11.7h-3.6Zm11.2,12.6c3.4,0,6.3-.9,6.3-4.9,0-2.7-1.5-4.7-4.9-4.7h-9v9.5h7.6Z" fill="#fff"></path><path id="Path_18363" data-name="Path 18363" d="M272.7,358h3.6v13.6L290.2,358h4.7l-11.5,11,12,16.3h-4.6l-9.9-13.8-4.6,4.2v9.6h-3.6Z" fill="#fff"></path><path id="Path_18364" data-name="Path 18364" d="M297.8,358h18.9v3.1H301.5v8.7h14.2v3.1H301.5v9.5h15.3v3.1h-19V358Z" fill="#fff"></path><path id="Path_18365" data-name="Path 18365" d="M327,361h-9.1v-3h21.9v3.1h-9.1v24.3H327Z" fill="#fff"></path><path id="Path_18366" data-name="Path 18366" d="M342.6,358h3.6v27.3h-3.6Z" fill="#fff"></path><path id="Path_18367" data-name="Path 18367" d="M351.9,358h3.9l14.4,22.2h.1V358h3.4v27.3h-4l-14.3-21.9h-.1v21.9h-3.4Z" fill="#fff"></path><path id="Path_18368" data-name="Path 18368" d="M399.6,381.9a10.607,10.607,0,0,1-8.8,4.1c-8.2,0-13-6.7-13-13.8,0-8,4.4-14.9,13-14.9,6,0,10.7,2.7,11.8,9.1H399c-.7-4.1-4.1-6-8.1-6-6.6,0-9.4,5.7-9.4,11.6,0,5.7,3.3,10.9,9.4,10.9,5.6,0,9-3.9,8.8-8.9H391v-3.1h12v14.4h-2.3Z" fill="#fff"></path></g></g></svg> 